# xmcd CD database file
#
# Track frame offsets:
#	150
#	16592
#	26737
#	37043
#	41579
#	47385
#	56210
#	64480
#	78050
#	86189
#	91515
#	101243
#	106637
#	114394
#	122933
#	132273
#	154830
#	168805
#	179240
#	189918
#	198968
#	208592
#	215340
#	222315
#	230417
#	240012
#	248545
#	258508
#	265948
#	275098
#
# Disc length: 3793 seconds
#
# Revision: 1
# Processed by: cddbd v1.5.1PL2 Copyright (c) Steve Scherf et al.
# Submitted via: CDex 1.51
#
DISCID=9d0ecf1e
DTITLE=Quaresma Ano B - Hino CF 2006 e Quaresma B
DYEAR=2005
DGENRE=Liturgico
TTITLE0=01-Hino da CF 2005-Levanta te vem pra o meio
TTITLE1=02-Entrada Cinzas Senhor eis aqui o teu povo
TTITLE2=03-Salmo Cinzas Piedade oh Senhor
TTITLE3=04-Aclamacao Cinzas e Dom 1a5 Louvor a vos oh Cristo Re
TTITLE4=05-Distribuicao Cinzas Pecador agora eh temp
TTITLE5=06-Oferta Cinzas e dom 1 e 2 Recebe este canto do chao
TTITLE6=07-Comunhao Cinzas e 5 dom Agora o tempo se cumpriu
TTITLE7=08-Entrada 1 2 e 3 dom Joao Batista clamou no deserto
TTITLE8=09-Salmo 1a3 dom so melodia Verdade e amor sao os caminhos do senhor
TTITLE9=10-Salmo Miria 1 Dom Quaresma
TTITLE10=11-Salmo Miria 2 Dom Quaresma
TTITLE11=12-Salmo Miria 3 Dom Quaresma
TTITLE12=13-Comunhao 1 dom Quando invocar eu atenderei
TTITLE13=14-Comunhao 2 dom Entao da nuvem luminosa
TTITLE14=15-Comunhao 3 e 4 dom O passarinho encontrou
TTITLE15=16-Salmo 4 dom Que se prenda a minha lingua
TTITLE16=17-Salmo Miria 4 dom Quaresma
TTITLE17=18-Comunhao 4 dom Glorifica o senhor
TTITLE18=19-Entrada 4 dom Fiquei foi contente
TTITLE19=20-Oferta 3a5 dom Eis o tempo de conversao
TTITLE20=21-Salmo 5 dom e Ramos Criai em mim um coracao q seja puro
TTITLE21=22-Salmo Miria 5 Dom Quaresma
TTITLE22=23-Salmo Miria Ramos
TTITLE23=24-Entrada Ramos Hosana ao filho de Davi
TTITLE24=25-Entrada opci Ramos Hosana e viva
TTITLE25=26-Procissao de Ramos Os filhos dos Hebreus
TTITLE26=27-Aclamacao Ramos Salve o Cristo obediente
TTITLE27=28-Oferta Ramos O morte estas vencida
TTITLE28=29-Comunhao Ramos Eu vim para que todos tenham vida
TTITLE29=30-Comunhao Opcional Ramos Pai se este calice
EXTD=YEAR: 2005
EXTT0=
EXTT1=
EXTT2=
EXTT3=
EXTT4=
EXTT5=
EXTT6=
EXTT7=
EXTT8=
EXTT9=
EXTT10=
EXTT11=
EXTT12=
EXTT13=
EXTT14=
EXTT15=
EXTT16=
EXTT17=
EXTT18=
EXTT19=
EXTT20=
EXTT21=
EXTT22=
EXTT23=
EXTT24=
EXTT25=
EXTT26=
EXTT27=
EXTT28=
EXTT29=
PLAYORDER=
